<svg height="512" viewBox="0 0 128 128" width="512" xmlns="http://www.w3.org/2000/svg"><path d="m111.041 33.7a1.749 1.749 0 0 0 -2.146.05 5.357 5.357 0 0 1 -5.206.374 7.305 7.305 0 0 0 -5.017-.33 6.711 6.711 0 0 1 3.242-2.62 1.75 1.75 0 1 0 -1.191-3.291c-4.043 1.462-6.208 5.03-7.231 9.19a9.983 9.983 0 0 0 -6.983-3.573 8.684 8.684 0 0 1 -7.237-4.657 1.749 1.749 0 0 0 -3.35.5c-.7 6.633.711 11.689 4.2 15.027 3.745 3.583 8.9 4.2 11.991 4.2.308 0 .59-.007.853-.017a39.816 39.816 0 0 0 .732 4.464c.631 2.776.031 4.769-1.607 5.331a2.267 2.267 0 0 1 -1.884-.131 7.353 7.353 0 0 0 -.617-.782 45.978 45.978 0 0 0 -14.1-10.035 1.7 1.7 0 0 0 -.53-.248 40.862 40.862 0 0 0 -16.059-3.8 30.583 30.583 0 0 0 -10.83 1.775 1.756 1.756 0 0 0 -.457.174 29.777 29.777 0 0 0 -10.779 7.119 74.731 74.731 0 0 1 -16.888 13.07 7.125 7.125 0 0 0 -3.084 9.078c5.43 12.013 17.465 25.655 33.847 25.654.551 0 1.108-.015 1.668-.047 22.589-1.268 28.537-13.831 32.339-25.508 1.021-3.138 2.374-5.405 4.02-6.737a7.371 7.371 0 0 0 2.721-5.158 7.171 7.171 0 0 0 .011-.8 6.028 6.028 0 0 0 1.758-.312c2.7-.928 5.14-3.889 3.882-9.419a37.355 37.355 0 0 1 -.841-6.419c0-.462-.006-.923-.039-1.383 0-.514 0-1.027.022-1.539a12.989 12.989 0 0 0 5.12 1.151 9.641 9.641 0 0 0 2.584-.345c3.318-.923 5.9-3.592 7.666-7.934a1.75 1.75 0 0 0 -.58-2.072zm-24.506 31.508c-2.181 1.765-3.912 4.583-5.146 8.375-2.98 9.152-7.08 18.185-19.955 21.678 1.63-3.522 3.18-9.191.4-15.1a1.75 1.75 0 0 0 -3.167 1.49c3 6.368-.549 12.7-1.744 14.544-1.485.222-3.057.389-4.741.484-.493.027-.979.041-1.464.041a28.1 28.1 0 0 1 -17.135-6.156 16.173 16.173 0 0 0 2.975-16.3 1.75 1.75 0 0 0 -3.315 1.124 12.8 12.8 0 0 1 -2.338 12.933 47.764 47.764 0 0 1 -10.852-15.195 3.6 3.6 0 0 1 1.6-4.577 78.277 78.277 0 0 0 17.687-13.684 26.514 26.514 0 0 1 8.281-5.827 11.282 11.282 0 0 1 .192 8.734 1.75 1.75 0 1 0 3.243 1.315 14.731 14.731 0 0 0 -.146-11.234 27.357 27.357 0 0 1 7.483-1.011h.457a37.28 37.28 0 0 1 14.478 3.38 15.272 15.272 0 0 1 .894 14.712 1.749 1.749 0 0 0 .818 2.335 1.724 1.724 0 0 0 .758.174 1.751 1.751 0 0 0 1.578-.991 18.157 18.157 0 0 0 .96-13.61 40.391 40.391 0 0 1 8.571 6.847 4.178 4.178 0 0 0 .6.8 3.564 3.564 0 0 1 .461 2.021 3.8 3.8 0 0 1 -1.433 2.698zm-3.995-23.364a11.414 11.414 0 0 1 -3.218-7.544 12.714 12.714 0 0 0 6.849 2.684c5.307.513 6.376 5.252 6.557 7.893 0 .06 0 .119.005.178-2.367.079-7.05-.205-10.193-3.211zm20.495-1.518a8.755 8.755 0 0 1 -6.143-.995c.963-1.358 2.8-3.083 5.448-1.976a9.407 9.407 0 0 0 3.93.761 6.561 6.561 0 0 1 -3.235 2.21z"/></svg>